<?xml version="1.0" encoding="utf-8"?>
<!-- Generator: Adobe Illustrator 24.0.1, SVG Export Plug-In . SVG Version: 6.00 Build 0)  -->
<svg version="1.1" id="Calque_1" xmlns="http://www.w3.org/2000/svg" xmlns:xlink="http://www.w3.org/1999/xlink" x="0px" y="0px"
	 viewBox="0 0 2500 1057" style="enable-background:new 0 0 2500 1057;" xml:space="preserve">
<style type="text/css">
	.st0{fill:#FFFFFF;}
</style>
<g>
	<g>
		<path class="st0" d="M270.6,840.4h-77.1l9.6-59.8h233.7l-9.6,59.8h-76.8l-31,196.7h-79.7L270.6,840.4z"/>
		<path class="st0" d="M446.3,1027c-18-11.4-30.3-27.1-37.1-46.9c-6.8-19.8-7.9-42.3-3.5-67.4c4.2-23.6,13.3-45.5,27.3-65.5
			c14-20.1,32.2-36.2,54.4-48.4c22.3-12.2,47.2-18.3,74.7-18.3c27.6,0,50.3,5.8,68.3,17.5c18,11.7,30.4,27.6,37.3,47.6
			c6.9,20.1,8.1,42.4,3.7,67c-4.4,24.9-14,47.2-28.8,67.2c-14.8,19.9-33.2,35.6-55.4,47.1c-22.1,11.4-46.3,17.2-72.3,17.2
			C487.1,1044.2,464.2,1038.4,446.3,1027z M557.2,967.2c9.2-5.8,17-13.5,23.3-23.1c6.3-9.6,10.5-20.1,12.7-31.4
			c2.2-11.8,2-22.5-0.6-32.1s-7.5-17.2-14.8-22.9c-7.3-5.7-16.6-8.5-27.9-8.5c-11.3,0-21.6,2.9-30.8,8.7
			c-9.2,5.8-16.9,13.5-23.1,23.3c-6.2,9.7-10.2,20.2-12.2,31.6c-2.5,11.8-2.4,22.5,0.2,32.1s7.5,17.2,14.8,22.7
			c7.3,5.5,16.5,8.3,27.9,8.3C537.8,975.9,548,973,557.2,967.2z"/>
		<path class="st0" d="M777.7,874.4l-25.5,162.8h-73.5l40.6-256.5h105.2l27.7,129.6l69.8-129.6H1028l-40.6,256.5h-73.4L939,876.6
			l-80.8,160.6h-55.7L777.7,874.4z"/>
		<path class="st0" d="M1067.5,1027c-18-11.4-30.3-27.1-37.1-46.9c-6.8-19.8-7.9-42.3-3.5-67.4c4.2-23.6,13.3-45.5,27.3-65.5
			c14-20.1,32.2-36.2,54.4-48.4c22.3-12.2,47.2-18.3,74.7-18.3s50.3,5.8,68.3,17.5c18,11.7,30.4,27.6,37.3,47.6
			c6.9,20.1,8.1,42.4,3.7,67c-4.4,24.9-14,47.2-28.8,67.2c-14.8,19.9-33.2,35.6-55.4,47.1c-22.1,11.4-46.3,17.2-72.3,17.2
			C1108.3,1044.2,1085.4,1038.4,1067.5,1027z M1178.4,967.2c9.2-5.8,17-13.5,23.3-23.1c6.3-9.6,10.5-20.1,12.7-31.4
			c2.2-11.8,2-22.5-0.6-32.1s-7.5-17.2-14.8-22.9c-7.3-5.7-16.6-8.5-27.9-8.5c-11.3,0-21.6,2.9-30.8,8.7
			c-9.2,5.8-16.9,13.5-23.1,23.3c-6.2,9.7-10.2,20.2-12.2,31.6c-2.5,11.8-2.4,22.5,0.2,32.1s7.5,17.2,14.8,22.7
			c7.3,5.5,16.5,8.3,27.9,8.3C1159,975.9,1169.2,973,1178.4,967.2z"/>
		<path class="st0" d="M1338.8,780.6h79.7l-40.6,256.5h-79.7L1338.8,780.6z M1338.8,895h96.3c32.2,0,56.5,5.3,72.9,15.9
			c16.4,10.6,23.8,26.6,22.3,48c-1,13.5-6,26.3-15,38.4c-9,12.1-21.5,21.7-37.5,29c-16,7.3-34.1,10.9-54.3,10.9H1310L1338.8,895z
			 M1363.9,780.6h101.5c29.5,0,49.8,6.8,60.7,20.5c10.9,13.7,14.5,30.8,10.5,51.5c-4.2,20.7-17.7,36.4-40.6,47.1
			c-22.9,10.7-50.9,16.1-84.2,16.1h-79L1363.9,780.6z M1416.7,978.1c10.3,0,18.8-1.8,25.3-5.5c6.5-3.7,10.6-9.5,12.4-17.3
			c1.5-6.1,0.1-11.3-4.1-15.3c-4.2-4.1-11.2-6.1-21-6.1h-65.3l-10.3,44.3H1416.7z M1426.6,883.2c9.8,0,17.9-1.9,24.2-5.7
			c6.3-3.8,10.1-9.4,11.6-16.8c1.7-7.6,0.3-13.7-4.2-18.3c-4.6-4.6-11.6-6.8-21.2-6.8h-63.9l-8.1,47.6H1426.6z"/>
		<path class="st0" d="M1586.1,780.6h79.4l-40.6,256.5h-79.4L1586.1,780.6z"/>
		<path class="st0" d="M1699.8,780.6h79.7l-30.3,190.8h120.3l-10.3,65.7h-200.1L1699.8,780.6z"/>
		<path class="st0" d="M1920.9,840.4h-77.1l9.6-59.8H2087l-9.6,59.8h-76.8l-31,196.7h-79.7L1920.9,840.4z"/>
		<path class="st0" d="M2107.6,961.5L2053,780.6h80.8l24.7,109.3l64.2-109.3h83.8l-117.4,173.1l-13.3,83.4h-80.1L2107.6,961.5z"/>
	</g>
	<g>
		<path class="st0" d="M1042,141.9c22.8,0,644.6,0,644.6,0s-15.2-26.3-54.4-60.2c-39.1-33.9-68.6-45.2-148.9-58.6
			c-87.1-14.6-380.6-10.7-422.9-6.2c-35.7,3.8-45.2,14.5-49.4,20.7c-7.8,11.5-7.6,23.2-5.6,39.5c1.5,11.9,4.4,24.6,7.1,35.8
			C1019.3,140.9,1034.3,141.9,1042,141.9z"/>
		<path class="st0" d="M1738.2,160.8c12.7,0,63.5-11.4,74.9-25.4c11.4-14-8.9-29.2-24.1-36.8c-15.2-7.6-41.1-21.6-63.7-10.2
			c0,0-3.6,0-7.4,17.8C1714.1,123.9,1725.5,160.8,1738.2,160.8z"/>
		<path class="st0" d="M710.5,204.9c22.4,9.8,211.1-61.4,211.1-61.4s23-6.6,36.8-38.1c10.4-23.8,25.3-55.8,13.6-69.2
			c-2.4-2.7-9.4-9.8-30.5-2.1c-33.9,12.3-103.7,39.2-174.1,96.6C720.6,168.9,688.1,195.1,710.5,204.9z"/>
		<path class="st0" d="M672.7,185.6c0.6,7.5,33.9-56.3,128.3-112.1c13.3-7.9-33.5-1.2-77.8,10.5c-22.7,6-69.9,16-74.5,32
			c-4.3,14.8,7.3,28.6,11.4,34.4C664.8,158.2,671.7,171.9,672.7,185.6z"/>
		<path class="st0" d="M1870,584.1c22-3.2,27.7-34.2,29.3-38c21.4-0.3,25.1,0,33.4,0c15.4-0.1,13.9-29.5,16.2-89.1
			c1.1-27.2,5.3-60.3,2.2-120.2c-3.6-71.3-54.1-141-94.9-141.8c-60.7-1.2-93.7,14.6-119.6,78.3c10.2-0.3,139.7,0.1,151.8,12.2
			c12.1,12.1,12.1,45.2,12.1,45.2s-136.3-3.6-178-0.8c-8.4,54.2-12.7,106.8-95.1,116.6c-130,15.4-257.7,9.9-299.7-61.6
			c-7.4-12.5-18.2-30.8-35-51.6c-71.5-0.7-196.1,1.8-202.8,1.8c-8.8,0-13.2-18.7-15.4-32c-3.6-21.5,7.7-18.4,160.2-27.2
			c-37.6-30-89-59.9-159.8-83.1c-171.8-56.2-213.6-19.9-239.1,36.4c-20.2,44.5-22.8,91.1-20,146.3c0.5,9.9-0.1,41.8,0,45.2
			c-38.5-2.2-103.7,3.2-107.1-68.2c-3.5-72.3,8.1-95.4,8.1-99.8c0-4.4-54.6-5.5-41.8-37.5c12.8-32-56.5,4.1-72,15.4
			c-9.1,3.1-21.5,14.1-25.5,32c-1.1,5-2,16.4-2.5,31.7c-18.4,13.9-32.3,72.6-32.3,142.9c0,50.1,7,94.3,17.7,120.6
			c3.1,7.7,12,23.7,19.7,28.3c-106.1,4.7-169,10.6-169,17c0,15.6,375.6,28.3,838.8,28.3c463.3,0,838.8-12.7,838.8-28.3
			C2088.8,595.8,2005.9,589.1,1870,584.1z M878.8,274.1c18.3,0,33.1,58.9,33.1,131.4c0,72.6-14.8,131.5-33.1,131.5
			c-18.3,0-33.1-58.9-33.1-131.5C845.7,333,860.5,274.1,878.8,274.1z M567.4,437.2c0-62.4,12.7-113,28.5-113
			c15.7,0,28.5,50.6,28.5,113c0,62.4-12.7,113-28.5,113C580.1,550.3,567.4,499.7,567.4,437.2z M744.7,536.5
			c30.9,1.6,62.2,2.5,89.6,3c6.3,17.7,13.9,31.1,22.3,38.6c-47.9,0.9-93,1.9-134.8,3C730.8,575.6,738.7,559.5,744.7,536.5z
			 M1007.1,576.1c4-4.8,7.8-11.7,11.2-20.5c78.3-0.5,458-4.7,702.9-7.5c6.3,15.1,13.6,26.2,21.6,32.2
			c-138.4-3.4-308.6-5.4-492.8-5.4C1165.5,574.9,1084,575.3,1007.1,576.1z"/>
	</g>
</g>
</svg>
